<?xml version="1.0" encoding="UTF-8"?>
<svg id="Camada_1" xmlns="http://www.w3.org/2000/svg" width="560" height="560" viewBox="0 0 560 560">
  <path d="M192.7,223.37c17.33-7.66,37.49-.81,42.73,27.81,11.29-46.76,27.01-95.14,37.49-128.59,2.42-8.06,11.29-12.9,19.75-10.88v.4c9.27,2.02,14.51,11.29,11.69,20.16-17.33,59.26-78.2,247.92-43.94,253.56,16.53,2.82,33.86-41.52,39.51-62.08.4-2.42,2.42-3.63,4.84-3.23,2.82.4,4.43,2.82,3.63,5.24-4.84,20.56-23.78,81.43-57.65,75.38-25.4-4.43-31.85-33.86-29.02-73.37-12.9,36.68-36.28,81.03-67.32,72.56-48.78-13.7-14.11-154.39,38.3-176.97ZM172.95,381.39c18.14,2.02,43.94-59.66,54.02-92.31q.4-.4.4-.81v-.4c0-.81.4-1.21.4-2.02,2.82-16.53,1.21-46.36-13.71-43.13-32.25,6.45-68.13,135.85-41.12,138.67Z"/>
  <path d="M512.12,306.91c0-1.61-.27-4.03-.81-7.26-1.88-5.64-5.51-11.15-10.88-16.53-3.23-2.96-7.12-6.05-11.69-9.27-7.26-4.57-15.19-8.87-23.78-12.9-16.12-7.53-32.65-13.84-49.58-18.95-4.03-1.08-6.99.26-8.87,4.03-.81,1.88-.88,3.83-.2,5.84.67,2.02,1.81,3.43,3.43,4.23h.4c9.4,4.84,16.79,8.73,22.17,11.69,7.79,4.3,15.05,8.6,21.77,12.9,8.33,5.1,14.91,9.67,19.75,13.71,2.95,2.42,5.5,4.84,7.66,7.26,2.15,2.42,2.55,4.43,1.21,6.05-1.35,1.88-3.5,4.03-6.45,6.45-4.57,4.03-10.75,8.47-18.54,13.3-5.91,3.49-13.04,7.52-21.36,12.09-5.91,2.95-13.3,6.58-22.17,10.88l-.4.4c-4.03,1.88-6.79,4.97-8.26,9.27-1.48,4.3-1.21,8.53.81,12.7,2.02,4.16,5.17,6.98,9.47,8.47,4.3,1.47,8.47,1.27,12.5-.6,16.66-8.06,32.11-17.07,46.36-27.01,8.6-5.91,15.99-11.83,22.17-17.74,4.3-4.57,7.66-8.87,10.08-12.9.54-.54,1.34-2.02,2.42-4.43,1.07-2.42,1.68-4.17,1.81-5.24.13-1.08.33-2.15.6-3.23.26-.54.4-1.61.4-3.22Z"/>
  <path d="M20.93,317c-.04,1.4.04,2.79.24,4.19,1.79,12.27,13.08,22.56,23.08,28.87,7.26,4.57,15.19,8.87,23.78,12.9,16.12,7.53,32.65,13.84,49.58,18.95,4.03,1.08,6.99-.26,8.87-4.03,2.62-5.26-1.53-9.23-5.8-11.32-14.37-7.04-28.12-15.02-41.76-23.34-8.33-5.1-14.91-9.67-19.75-13.71-2.95-2.42-5.5-4.84-7.66-7.26-2.15-2.42-2.55-4.43-1.21-6.05,1.35-1.88,3.5-4.03,6.45-6.45,4.57-4.03,10.75-8.47,18.54-13.3,5.91-3.49,13.04-7.52,21.36-12.09,5.91-2.95,13.3-6.58,22.17-10.88l.4-.4c4.03-1.88,6.79-4.97,8.26-9.27,1.48-4.3,1.21-8.53-.81-12.7-2.02-4.16-5.17-6.98-9.47-8.47-4.3-1.47-8.47-1.27-12.5.6-16.66,8.06-32.11,17.07-46.36,27.01-12.44,8.56-25.6,18.46-33.07,31.92-2.52,4.55-4.22,9.68-4.36,14.84Z"/>
  <path d="M408.03,178.14c2.51-4.94,6.2-10.95,11.03-17.94,4.76-6.9,9.66-13.04,14.69-18.4,4.93-5.27,9.65-8.86,14.15-10.82,4.4-1.91,7.83-.8,10.31,3.24l.13.55c-.06.31-.2.58-.41.82-1.21-.49-3.03.6-5.47,3.29-2.47,2.72-5.5,6.93-9.1,12.66-3.64,5.79-7.67,13.02-12.1,21.71-4.47,8.77-9.11,18.57-13.92,29.41-4.25,9.71-8.86,21.03-13.83,33.98-5,13-10.29,26.53-15.9,40.6-5.64,14.15-11.5,28.33-17.59,42.55-6.15,14.34-12.44,27.85-18.89,40.56-9.83,19.36-19.9,35.43-30.33,48.24-10.76,13.22-21.98,20.38-33.89,21.19-1.66.27-4.07.39-7.25.38-3.23-.02-5.05-.61-5.45-1.77.35-.45,1.73-1.56,4.12-3.34,2.37-1.76,5.65-5.11,9.83-10.01,4.12-4.84,9.11-11.65,14.94-20.39,5.74-8.61,12.38-20.06,19.9-34.28,7.82-15.06,15.7-31.21,23.65-48.48,7.85-17.06,15.48-33.85,22.91-50.37,7.34-16.34,14.29-31.87,20.84-46.61,6.49-14.6,12.36-26.86,17.63-36.79Z"/>
</svg>